<svg id="Layer_1" data-name="Layer 1" xmlns="http://www.w3.org/2000/svg" viewBox="0 0 1920 151.24"><defs><style>.cls-1{fill:#37474F;}</style></defs><title>wave-mid</title><path class="cls-1" d="M0,7.93s61.79,0,98.25,14.4c3.35,1.32,6.7,2.65,10.09,3.86l17.12,6.13q21.14,7.57,42,16C196.55,60.12,259.3,83.78,304.13,88c1.61,0.15,3.21.31,4.81,0.51,9.67,1.2,50.52,5.62,85.42-.28,0,0,52.84-6.22,117.07-29,0,0,74.93-26.06,103.48-32.75q4.7-1.1,9.36-2.38c18.72-5.15,86.29-21.88,155-16.16,80.81,6.73,161.62,49.21,161.62,49.21L989.06,81s77.7,41.44,132.1,35.23l43.38-4.25q9.46-.93,18.85-2.37l145.5-22.38,262.64-43.51S1827.84,6.76,1920,6.76V158H0V7.93Z" transform="translate(0 -6.76)"/></svg>